# xmcd
#
# Track frame offsets:
#	150
#	19992
#	44005
#	68330
#	86255
#	106550
#	127022
#	142965
#	164105
#	181905
#	204632
#	222985
#
# Disc length: 3191 seconds
#
# Revision: 786435
# Processed by: cddbd v1.5.2PL0 Copyright (c) Steve Scherf et al.
# Submitted via: EZCDAudioConverter 8.0.2.1
#
DISCID=a70c750c
DTITLE=Various Artist - Dạ Vũ Yêu Đương 2
DYEAR=1988
DGENRE=World Pop
TTITLE0=Minh Xuân - Phút bên chàng
TTITLE1=Carol Kim - Nửa đêm ngoài phố
TTITLE2=Ngọc Minh - Trăng sơn cước
TTITLE3=Vũ Khanh - Cơn mưa phùn
TTITLE4=Thái Hiền - Ngày xưa Hoàng Thị
TTITLE5=Thanh Mai - Thu ca
TTITLE6=Nhu Mai - Ngày về quê cũ
TTITLE7=Elvis Phương - Ngàn năm vẫn đợi
TTITLE8=Minh Phương - Còn lại xót xa
TTITLE9=Kiều Nga - Giáng Ngọc
TTITLE10=Thư Lê - Tình đầu
TTITLE11=Khánh Hà - Tan tác
EXTD=
EXTT0=
EXTT1=
EXTT2=
EXTT3=
EXTT4=
EXTT5=
EXTT6=
EXTT7=
EXTT8=
EXTT9=
EXTT10=
EXTT11=
PLAYORDER=
